<?xml version="1.0" encoding="UTF-8" standalone="no"?>
<!-- Created with Inkscape (http://www.inkscape.org/) -->

<svg
   version="1.1"
   viewBox="0 0 982.94635 2580.1491"
   xmlns="http://www.w3.org/2000/svg"
   xmlns:svg="http://www.w3.org/2000/svg">
  <defs
     id="defs1" />
  <g
     id="g1"
     transform="rotate(11.408698,2096.5123,-1645.5655)">
    <path
       style="fill:#000000"
       d="m 1095.7419,2851.0824 c -69.9019,-6.9015 -134.30157,-35.2479 -181.98139,-80.1017 -48.39577,-45.5272 -74.2692,-116.3574 -65.07399,-178.1441 5.72758,-38.4861 20.2884,-74.6593 41.94025,-104.1914 7.37613,-10.0607 27.5587,-30.1155 38.41047,-38.1673 22.6757,-16.8249 48.68053,-26.6657 78.98226,-29.8886 23.8557,-2.5373 51.1147,3.1685 77.2224,16.1641 32.6797,16.2668 63.2296,48.713 78.0475,82.8918 11.7411,27.0819 16.9556,57.7168 14.5585,85.5302 -1.4089,16.3488 -3.0318,24.5063 -7.578,38.0926 -13.0116,38.8846 -44.577,73.1217 -82.4824,89.4635 -8.6262,3.719 -26.9404,9.0552 -35.7956,10.4298 -2.3375,0.3628 -4.25,0.9644 -4.25,1.3368 0,1.2151 16.3175,10.875 23.9246,14.1633 10.359,4.4778 28.0431,8.7454 41.8752,10.1055 70.6908,6.9508 151.7446,-27.6402 192.0068,-81.9419 8.0322,-10.8329 13.1637,-21.2578 19.0396,-38.6798 9.4188,-27.9265 12.6553,-46.55 14.1234,-81.2681 2.5874,-61.1864 -3.7521,-101.4408 -38.4633,-244.2319 -5.2811,-21.725 -11.869,-49.4 -14.6397,-61.5 -2.7707,-12.1 -5.1117,-22.0726 -5.2021,-22.1614 -0.091,-0.089 -4.2145,0.6769 -9.1645,1.7014 -28.0365,5.8029 -63.3047,9.1067 -97.5,9.1335 -49.3596,0.039 -93.2635,-5.8257 -135.9519,-18.1596 -104.75048,-30.2654 -197.79216,-93.3427 -268.4783,-182.0139 -60.53529,-75.9376 -100.67779,-163.942 -118.00871,-258.7106 -12.09049,-66.1129 -11.93111,-121.1036 0.54861,-189.2894 13.05203,-71.3128 42.5394,-146.6438 87.68198,-224 30.76508,-52.719 91.44775,-133.9658 141.16268,-189 20.61033,-22.8156 84.45199,-89.2357 132.16204,-137.5 l 26.69,-27 -3.8943,-15 c -23.4606,-90.36702 -37.30007,-183.16199 -41.83981,-280.54054 -1.00465,-21.55013 -0.0404,-56.51225 2.4396,-88.4595 7.04011,-90.68886 26.55991,-177.86943 54.51971,-243.5 23.1015,-54.22665 51.0799,-98.18893 82.4342,-129.52853 14.0454,-14.03879 24.0841,-22.23964 42.0342,-34.33884 36.6376,-24.69535 53.8734,-28.91012 75.4303,-18.44529 11.5497,5.60685 31.8316,28.0535 49.5265,54.81266 64.0112,96.80113 98.4584,205.94161 106.5225,337.5 1.3038,21.26883 1.3007,73.80754 -0.01,95 -7.4439,120.77349 -40.9743,240.96256 -95.996,344.09604 -35.5606,66.6554 -77.2077,123.4602 -129.8576,177.1205 l -15.4206,15.7164 3.1953,15.7836 c 1.7575,8.6809 4.9249,24.1085 7.0386,34.2835 2.1138,10.175 11.1564,54.05 20.0946,97.5 8.9383,43.45 16.5662,79.3552 16.951,79.7892 0.3847,0.4341 9.2093,-0.1844 19.6103,-1.3745 50.2229,-5.7466 106.3034,3.37 154.6542,25.1412 46.0675,20.7431 89.9903,54.8866 122.1377,94.9441 50.5932,63.0421 80.7441,139.7344 89.637,228.0022 0.7451,7.3959 1.0077,24.3532 0.7357,47.5 -0.3542,30.132 -0.782,38.5235 -2.6251,51.4978 -7.4485,52.4331 -25.4813,103.3397 -52.645,148.6169 -28.9543,48.2619 -68.0833,87.2826 -117.9105,117.5843 -13.193,8.0231 -41.5118,22.4083 -53.8753,27.3673 l -9.802,3.9315 0.6155,4.5 c 1.4861,10.8652 12.2744,63.2222 21.0174,102 13.3149,59.0557 29.5845,138.3568 34.3957,167.6507 5.2295,31.8407 6.5107,49.0783 6.4923,87.3493 -0.018,37.1493 -0.689,44.9353 -5.9084,68.5341 -20.7887,93.9936 -91.1493,168.2675 -188.5086,198.993 -22.6284,7.1412 -42.881,11.1385 -67.9999,13.4211 -15.4126,1.4005 -50.3367,1.1342 -67,-0.511 z m 76,-679.4791 c 14.9787,-1.3481 30.0574,-3.39 48,-6.5001 17.4854,-3.0308 43.2102,-8.4995 44.2524,-9.4073 0.6862,-0.5977 -5.9076,-34.3676 -49.7028,-254.5507 -7.8766,-39.6 -20.5098,-103.275 -28.0739,-141.5 -7.564,-38.225 -14.1315,-69.9186 -14.5944,-70.4302 -1.8637,-2.0597 -25.6719,10.9497 -41.3716,22.6064 -11.755,8.7279 -33.228,29.1139 -43.0006,40.8238 -19.3946,23.2394 -33.1988,50.7052 -38.5538,76.7094 -6.0977,29.6105 -4.0574,55.571 6.6573,84.7061 5.6397,15.3353 15.6787,35.3151 24.1604,48.0845 15.7015,23.639 42.0238,45.0151 67.6655,54.9504 17.9207,6.9438 24.8759,13.9795 27.419,27.7365 1.3719,7.4214 0.5222,12.0256 -3.2561,17.6434 -3.9066,5.8086 -10.196,9.7032 -20.5145,12.7031 l -8.081,2.3494 -11.7529,-3.372 c -49.9899,-14.3423 -90.1669,-38.1868 -125.813,-74.6682 -44.84438,-45.8953 -70.34064,-98.6939 -79.60196,-164.8426 -2.19004,-15.6423 -1.67813,-50.4459 1.01303,-68.8736 6.44255,-44.1153 16.75865,-76.9071 36.21225,-115.1079 35.27048,-69.2602 86.61878,-122.0126 150.43668,-154.5502 7.7,-3.9259 14.6388,-7.3502 15.4194,-7.6096 1.1512,-0.3825 -1.9542,-17.8487 -16.4307,-92.4152 -9.8176,-50.5689 -18.1927,-92.3449 -18.6113,-92.8354 -0.7276,-0.8526 -3.6837,1.5911 -26.3741,21.8021 -72.00046,64.133 -138.16547,137.473 -188.18322,208.5898 -59.3178,84.3399 -90.88394,172.4884 -96.18786,268.6047 -3.88523,70.4071 20.64273,151.823 64.28468,213.3808 63.05322,88.9379 158.6345,142.7357 274.4873,154.4948 25.6822,2.6067 34.6226,2.8705 50.0958,1.4778 z m 179.9039,-46.6099 c 18.1568,-10.052 32.5376,-21.0231 47.2011,-36.0096 33.5177,-34.2562 52.7938,-77.6996 61.3815,-138.3386 0.8179,-5.775 2.018,-20.175 2.667,-32 1.126,-20.5188 1.0796,-22.1 -1.0167,-34.6475 -7.7037,-46.1106 -24.4868,-86.5448 -50.3699,-121.3525 -8.7983,-11.832 -31.4771,-34.591 -42.7669,-42.9183 -24.1014,-17.7771 -51.8645,-30.6489 -80,-37.0906 -10.857,-2.4857 -16.5462,-3.4341 -32.75,-5.4592 -2.4505,-0.3062 -3.25,-0.023 -3.25,1.1528 0,1.4809 6.3165,32.9333 25.3672,126.3153 44.2126,216.7186 65.6328,322.202 65.6328,323.2075 0,1.3186 1.0317,0.9454 7.9039,-2.8593 z M 1123.985,950.51877 c 24.6938,-22.99595 57.4249,-62.9765 83.5661,-102.07461 45.7163,-68.37559 78.1839,-136.32625 94.0667,-196.86987 7.0074,-26.71166 9.9895,-47.15759 10.7827,-73.92913 0.7624,-25.73144 -0.5836,-39.29163 -6.667,-67.16865 -6.2197,-28.50123 -24.9143,-43.0125 -53.4916,-41.52158 -21.3339,1.11302 -39.6684,10.35264 -59.3424,29.90538 -18.957,18.84031 -31.7619,38.96957 -48.8453,76.78485 -38.7698,85.81955 -62.9618,209.1354 -55.9111,285 3.4325,36.93321 12.2088,84.66349 18.7222,101.82086 l 0.881,2.32086 2.7478,-2.13185 c 1.5113,-1.17252 7.5822,-6.63383 13.4909,-12.13626 z"
       id="path1" />
  </g>
</svg>
