<?xml version="1.0" encoding="UTF-8" standalone="no"?>
<!-- Created with Inkscape (http://www.inkscape.org/) -->

<svg
   version="1.1"
   viewBox="0 0 606.28106 778.3183"
   xmlns="http://www.w3.org/2000/svg"
   xmlns:svg="http://www.w3.org/2000/svg">
  <defs
     id="defs1" />
  <g
     id="g1"
     transform="translate(-4.092729,-5.9927314)">
    <path
       style="stroke:none"
       d="m 144.8551,215.83014 h 1.33333 C 150.79332,108.5808 265.96532,20.447823 367.52175,76.979318 c 17.4904,9.736 30.34579,23.327632 42.66667,38.850832 -74.6946,31.10656 -62.18974,139.15327 14.66667,157.48762 12.02823,2.86939 25.11653,3.7771 37.33333,1.43933 10.38008,-1.98632 20.17004,-5.4543 29.33333,-10.76131 C 553.91437,227.86062 541.30609,141.4958 507.51662,90.496808 428.10419,-29.361664 230.83227,-20.449392 165.85921,109.16348 151.20084,138.40506 135.06786,182.7189 144.8551,215.83014 m 19.99999,18.66667 c 18.30331,25.98364 46.6532,47.22847 69.33334,69.35286 50.82844,49.58301 101.80195,99.11576 151.99999,149.3138 22.46444,22.46444 45.53752,44.20418 68,66.66667 10.68058,10.68058 22.23283,26.91316 36,33.33333 l 63.2325,-97.33333 27.43416,-44 C 486.97931,373.31631 394.112,332.05703 300.85509,292.03074 c -44.05347,-18.90791 -89.78987,-44.89514 -136,-57.53393 m 443.99999,225.33333 c -3.68587,6.15299 -2.23584,13.12207 -2.89303,20 -1.076,11.26098 -3.40149,22.41312 -6.28601,33.33333 -8.49955,32.17761 -26.17989,60.82662 -48.38065,85.33333 -61.3044,67.67196 -162.97859,81.75228 -246.4403,52.87447 -21.81551,-7.54818 -42.33309,-18.77551 -60,-33.6615 -6.00541,-5.06014 -14.95267,-11.72766 -18.04527,-19.19344 -2.92594,-7.06343 18.94241,-20.57361 23.75411,-25.57918 18.67141,-19.42383 29.66665,-46.28475 31.50515,-73.10701 1.2218,-17.82528 -0.23159,-36.38973 -6.14095,-53.33333 C 244.60648,356.68984 127.0737,333.24966 56.855104,392.41555 -46.387783,479.40753 19.379324,638.19899 104.8551,709.91241 c 100.40986,84.24308 258.69965,100.76204 370.66665,29.84676 38.54382,-24.41211 69.38879,-58.14982 92.52881,-97.26237 16.17443,-27.33891 28.078,-58.20369 34.40327,-89.33333 6.16256,-30.3289 10.29981,-62.48535 6.40125,-93.33333 z"
       id="path1" />
  </g>
</svg>
