<?xml version="1.0" encoding="UTF-8" standalone="no"?>
<!-- Created with Inkscape (http://www.inkscape.org/) -->

<svg
   version="1.1"
   viewBox="0 0 165.75999 220.48"
   xmlns="http://www.w3.org/2000/svg"
   xmlns:svg="http://www.w3.org/2000/svg">
  <defs
     id="defs1" />
  <g
     id="g1">
    <path
       d="m 74.880002,219.93195 c -2.65698,-0.21447 -9.34921,-1.37833 -12.44892,-2.16502 C 47.998512,214.10405 35.441062,206.94684 24.802022,196.32 12.40562,183.93781 4.4466994,168.45546 1.2382134,150.48173 0.27825841,145.10413 0.04453841,133.64981 0.77295441,127.68 2.5872944,112.81036 8.8958924,97.559418 17.896566,86.283938 c 1.652376,-2.07 2.078775,-2.43876 2.405115,-2.08 0.704569,0.77455 5.298321,8.13904 5.298321,8.49402 0,0.18902 -0.22587,0.53113 -0.50193,0.76024 -1.12023,0.92971 -5.737335,8.320452 -7.658159,12.258652 -3.03778,6.22826 -4.900189,11.97211 -6.291357,19.40315 -0.943433,5.03942 -1.1682766,16.13805 -0.438052,21.6229 3.214062,24.14145 18.474918,45.38376 40.329498,56.13656 9.71732,4.78108 18.40776,6.93565 29.31082,7.26689 6.69701,0.20346 11.13754,-0.1503 17.24917,-1.37418 32.090598,-6.42624 56.411288,-35.29092 57.810978,-68.61217 0.82262,-19.58343 -7.02357,-39.47981 -21.14868,-53.628842 -6.48167,-6.492639 -13.41966,-11.399489 -21.64482,-15.308146 l -2.81567,-1.338024 5.6591,-2.813647 5.6591,-2.813647 2.4,1.358877 c 12.41834,7.03125 24.02152,18.489737 31.14457,30.756197 5.08482,8.756482 8.27734,17.911142 9.98903,28.643842 0.69905,4.38327 0.96681,15.35303 0.49094,20.11368 -3.9166,39.18222 -33.97081,70.03601 -72.625508,74.55769 -3.67099,0.42942 -13.63433,0.56722 -17.63903,0.24397 z m -3.32038,-20.13599 c -8.8452,-1.89681 -15.6053,-7.38754 -18.74298,-15.22353 -1.78249,-4.45155 -2.07674,-6.24663 -2.08715,-12.73243 -0.008,-5.04661 0.0999,-6.40834 0.73173,-9.22999 2.59559,-11.5909 8.41442,-21.74343 17.30682,-30.19643 3.15207,-2.99632 7.40908,-6.23595 10.51196,-7.99972 0.924,-0.52523 1.60706,-1.07298 1.51791,-1.21724 -0.0892,-0.14425 -1.70915,-1.08771 -3.6,-2.09659 -14.49876,-7.73591 -28.70364,-17.80214 -37.19791,-26.360132 -7.13316,-7.18667 -12.11181,-16.248257 -14.13096,-25.719609 -0.91665,-4.299764 -0.97739,-11.278655 -0.13281,-15.26029 1.37133,-6.46493 4.88912,-13.525615 9.12045,-18.30597 4.97512,-5.620658 18.47278,-13.801335 36.89502,-22.361376 9.15009,-4.2516664 30.176608,-13.03100342 30.480778,-12.72683542 0.12151,0.121512 1.76809,7.20118702 1.76694,7.59718702 -3.1e-4,0.108347 -0.64234,0.602441 -1.42673,1.097987 -1.04591,0.660761 -1.66379,1.3859904 -2.31741,2.7199994 -0.827338,1.688572 -0.888628,2.082892 -0.854618,5.499009 0.0216,2.168241 0.32845,5.388944 0.746998,7.84 0.79764,4.671048 3.71719,16.402887 6.8872,27.675281 1.16239,4.133406 1.99907,7.559317 1.85929,7.613137 -1.3978,0.538182 -51.068068,27.83288 -51.082398,28.07069 -0.0505,0.83838 9.23918,7.36994 16.26825,11.43818 5.36361,3.104322 13.35742,7.310002 24.95999,13.131872 9.773608,4.90414 12.806198,6.71119 16.084158,9.58419 8.52522,7.47202 12.34173,16.79231 11.28523,27.55965 -1.83387,18.6899 -14.72095,37.52714 -31.209388,45.61924 -6.72418,3.30005 -11.56276,4.52463 -17.70814,4.48167 -2.05252,-0.0144 -4.72202,-0.23843 -5.93223,-0.49795 z m 15.55307,-13.99182 c 2.9442,-1.10866 7.07169,-3.23726 10.1673,-5.24341 4.062838,-2.63298 5.120008,-3.54278 5.120008,-4.40632 0,-0.68653 -6.476468,-41.73339 -6.901698,-43.74188 -0.16387,-0.77402 -0.29324,-0.84842 -1.20098,-0.69067 -4.33477,0.75331 -11.80174,4.72101 -15.98996,8.49653 l -1.53263,1.38161 3.69111,21.76 c 4.13224,24.36057 3.91549,23.2 4.33295,23.2 0.16863,0 1.20988,-0.34014 2.3139,-0.75586 z"
       id="path1" />
  </g>
</svg>
