<?xml version="1.0" encoding="UTF-8" standalone="no"?>
<!-- Created with Inkscape (http://www.inkscape.org/) -->

<svg
   version="1.1"
   viewBox="0 0 2558.9656 1111.8076"
   xmlns="http://www.w3.org/2000/svg"
   xmlns:svg="http://www.w3.org/2000/svg">
  <defs
     id="defs1" />
  <g
     id="g1"
     transform="translate(-903.76548,-1737.8124)">
    <path
       d="m 2064.8241,2848.5714 c -10.5735,-1.568 -19.401,-8.0798 -24.4439,-18.0315 -3.0186,-5.9569 -3.2564,-8.6666 -5.9114,-67.3553 -0.8459,-18.7 -1.9877,-43.225 -2.5373,-54.5 -7.5031,-153.9308 -7.2882,-144.6442 -5.5446,-239.5 2.2588,-122.8883 4.4062,-237.1377 5.5447,-295 0.541,-27.5 1.6857,-88.925 2.5437,-136.5 2.3749,-131.6944 2.656,-139.5549 5.1911,-145.1757 2.9788,-6.6045 9.5459,-13.3189 16.1442,-16.5063 7.4498,-3.5987 19.1315,-3.8717 26.3186,-0.6149 6.5461,2.9662 13.3052,9.5367 16.4746,16.0145 2.5891,5.2919 2.7201,6.3597 3.4543,28.1415 0.4197,12.4525 1.2584,47.1659 1.8639,77.1409 1.5349,75.9922 2.8572,139.5412 4.0368,194 1.058,48.8475 3.2525,154.428 4.9988,240.5 0.5691,28.05 1.4306,68.1 1.9143,89 0.4837,20.9 0.6989,39.575 0.4781,41.5 -0.2207,1.925 -1.0745,17 -1.8973,33.5 -2.023,40.5708 -4.3146,85.0853 -5.5341,107.5 -0.5536,10.175 -1.6689,31.325 -2.4785,47 -4.0374,78.1677 -3.709,74.5952 -7.5516,82.1273 -5.9534,11.6698 -19.8586,18.718 -33.0644,16.7595 z m 205.8753,0.027 c -15.0251,-3.5411 -26.3917,-16.212 -28.8324,-32.1409 -0.6081,-3.9691 -0.8606,-191.2202 -0.6873,-509.7734 0.2609,-479.7893 0.3575,-503.7146 2.0517,-508.056 5.2358,-13.4171 16.0243,-19.7625 55.7221,-32.774 46.0846,-15.1047 87.5517,-23.13 137.9536,-26.6985 67.0335,-4.746 133.6158,3.0775 200.8129,23.5957 130.5381,39.8591 244.885,130.7936 314.9103,250.4328 39.1113,66.8223 64.7511,144.2623 72.4263,218.75 0.6659,6.4625 1.5291,11.75 1.9182,11.75 0.3891,0 5.606,-1.8404 11.5931,-4.0897 40.0323,-15.0401 86.6815,-21.9558 128.4512,-19.0429 29.3829,2.0492 52.7009,6.459 78.3545,14.8183 63.5697,20.7144 118.2978,60.5339 157.8011,114.8143 40.4527,55.585 61.421,123.508 59.426,192.5 -0.966,33.4077 -5.1965,58.7743 -14.8365,88.962 -22.4571,70.3245 -70.7958,131.8795 -134.8727,171.7486 -31.6056,19.6652 -70.8347,34.5366 -109.938,41.6764 -26.2846,4.7993 -7.0773,4.62 -483.2216,4.5125 -254.2948,-0.057 -446.8886,-0.4799 -449.0325,-0.9852 z m -739.1884,-1.1251 c -2.4414,-0.6681 -5.734,-2.8705 -8.648,-5.7845 -5.9359,-5.9358 -6.3348,-7.8208 -8.4028,-39.6979 -0.8633,-13.3063 -1.9925,-30.1813 -2.5095,-37.5 -0.517,-7.3188 -1.6407,-23.4318 -2.4972,-35.8068 -0.8565,-12.375 -1.9842,-28.575 -2.506,-36 -1.307,-18.5966 -3.7536,-54.2635 -5.4876,-80 -0.7967,-11.825 -1.9318,-28.025 -2.5225,-36 -1.2972,-17.5136 -1.2979,-27.667 0,-61.5323 0.5454,-14.2822 1.6678,-45.0927 2.4941,-68.4677 2.4762,-70.0514 4.4801,-125.9209 5.5238,-154 0.5417,-14.575 1.6665,-45.85 2.4995,-69.5 0.8331,-23.65 1.9558,-54.7 2.495,-69 0.5393,-14.3 1.6515,-46.025 2.4717,-70.5 0.8202,-24.475 1.7513,-46.7079 2.0691,-49.4064 1.4177,-12.0383 9.4997,-19.5936 20.9597,-19.5936 6.575,0 10.9428,1.6453 14.8582,5.5969 6.0963,6.1527 6.6616,8.5613 7.6759,32.7053 2.4569,58.4827 4.3513,104.8896 7.4989,183.6978 0.8237,20.625 1.9345,47.85 2.4684,60.5 0.5339,12.65 1.6575,40.325 2.4968,61.5 0.8394,21.175 1.9702,48.85 2.513,61.5 5.8285,135.8394 5.7999,133.3311 2.0581,180.5 -3.9012,49.1794 -7.6093,96.5114 -9.5577,122 -2.0119,26.3196 -6.1633,79.4458 -7.4829,95.7595 -1.0769,13.3129 -1.8376,16.4042 -5.2876,21.4866 -4.2204,6.2174 -15.0915,9.7557 -23.1759,7.5431 z m 210.7785,0.1788 c -9.085,-1.8203 -17.221,-9.769 -19.1779,-18.7365 -0.5679,-2.6023 -1.2922,-9.2315 -1.6095,-14.7315 -1.0006,-17.3413 -3.5279,-59.3806 -4.5391,-75.5 -1.1627,-18.5362 -3.6178,-59.74 -5.0052,-84 -0.5504,-9.625 -1.4536,-24.475 -2.0072,-33 -4.1552,-63.9969 -4.1765,-64.7274 -3.0426,-104.2492 2.6116,-91.0232 3.121,-109.1371 4.5346,-161.2508 2.3411,-86.3067 4.4332,-162.0165 5.4853,-198.5 0.5313,-18.425 1.6747,-60.05 2.5409,-92.5 2.4858,-93.122 2.7484,-98.2653 5.2648,-103.1282 2.7504,-5.315 10.0146,-11.6941 15.0267,-13.1958 5.0191,-1.5037 11.3838,-1.4988 16.429,0.013 5.9475,1.7819 13.2712,8.8747 15.5951,15.1035 2.0913,5.6055 1.8695,0.7112 5.6758,125.2077 0.7903,25.85 1.8979,61.175 2.4613,78.5 1.0298,31.6667 2.7719,87.6627 5.5534,178.5 0.8253,26.95 1.9374,62.5 2.4714,79 0.534,16.5 1.6662,52.5529 2.516,80.1176 l 1.545,50.1176 -2.5444,37.3824 c -1.3994,20.5603 -3.2223,47.5074 -4.0509,59.8824 -0.8285,12.375 -2.6338,38.925 -4.0116,59 -2.6376,38.4302 -4.6601,68.5819 -6.4395,96 -1.3354,20.5778 -2.1896,24.3966 -6.8096,30.4445 -6.0054,7.8613 -15.9255,11.5143 -25.8618,9.5235 z m 211.4213,0.01 c -7.8075,-1.9684 -16.2306,-9.2497 -19.6402,-16.9779 -2.5895,-5.8692 -2.8985,-8.8635 -4.6441,-45 -0.8104,-16.775 -1.9117,-38.6 -2.4474,-48.5 -0.5357,-9.9 -1.6739,-31.725 -2.5293,-48.5 -3.1984,-62.7239 -4.4878,-88.1283 -5.6138,-110.6024 -0.8785,-17.5339 -0.876,-34.527 0.01,-70.5 0.6424,-26.0687 1.8215,-74.1726 2.6203,-106.8976 2.259,-92.5369 4.3978,-178.8285 5.4777,-221 0.5423,-21.175 1.6537,-67.525 2.4698,-103 0.8161,-35.475 1.7314,-66.9151 2.0341,-69.8668 1.608,-15.6834 14.8567,-28.1332 29.9386,-28.1332 15.0889,0 28.6536,12.5221 30.1275,27.812 0.2486,2.5784 0.9086,22.238 1.4666,43.688 1.4018,53.8792 3.7792,141.1721 4.9702,182.5 0.5469,18.975 1.6761,59.475 2.5095,90 0.8333,30.525 1.9592,71.025 2.502,90 4.4506,155.5788 4.4498,139.2923 0.01,211.5 -0.5411,8.8 -1.6682,28.15 -2.5047,43 -0.8365,14.85 -1.9747,34.65 -2.5293,44 -1.5387,25.9428 -3.8671,66.8931 -4.9751,87.5 -0.5471,10.175 -1.2164,20.4258 -1.4873,22.7796 -1.1313,9.8281 -7.9475,19.4446 -17.1248,24.1603 -4.7295,2.4302 -15.0451,3.4487 -20.6407,2.038 z m -528.589,-2.1236 c -5.7283,-2.8355 -9.0265,-8.0018 -10.1969,-15.9726 -0.5153,-3.51 -1.6264,-16.2817 -2.4691,-28.3817 -1.6319,-23.4353 -3.8928,-54.6958 -5.4964,-76 -0.5382,-7.15 -1.6632,-22.45 -2.4999,-34 -0.8368,-11.55 -1.9619,-26.85 -2.5003,-34 -7.6459,-101.5471 -7.4822,-97.505 -5.6262,-138.9136 1.7226,-38.4343 3.8649,-84.1443 5.6045,-119.5864 0.5535,-11.275 1.6888,-35.125 2.523,-53 0.8342,-17.875 1.9561,-41.5 2.493,-52.5 1.4946,-30.62 3.8657,-81.4583 5.4802,-117.5 1.9356,-43.2113 2.3324,-47.7124 4.5977,-52.1526 7.0203,-13.761 27.1084,-13.4227 33.8824,0.5706 1.9136,3.9529 2.3296,7.5861 3.5812,31.2772 0.7789,14.7426 1.8849,35.3548 2.4577,45.8048 1.432,26.1205 3.7422,69.5098 5.4843,103 0.8011,15.4 1.9153,36.1 2.4761,46 0.5607,9.9 1.702,31.05 2.5361,47 0.8341,15.95 1.9591,36.875 2.5,46.5 0.5409,9.625 1.6659,30.55 2.5,46.5 0.8341,15.95 1.9726,37.034 2.5301,46.8532 0.973,17.1393 0.8337,20.0385 -3.4844,72.5 -2.4739,30.0558 -4.95,59.5968 -5.5025,65.6468 -0.5525,6.05 -1.6865,19.55 -2.52,30 -0.8335,10.45 -1.9803,24.4 -2.5484,31 -1.901,22.0845 -5.0217,59.8204 -6.4554,78.0593 -0.7808,9.9327 -1.861,19.2202 -2.4004,20.6389 -1.483,3.9006 -7.1796,9.931 -10.817,11.4508 -4.721,1.9725 -11.182,1.6542 -16.1294,-0.7947 z m 207.3317,-0.2317 c -10.476,-4.9403 -12.8706,-10.2815 -14.4016,-32.1226 -0.6168,-8.8 -1.7878,-26.575 -2.6021,-39.5 -0.8144,-12.925 -1.9286,-30.025 -2.4761,-38 -0.5476,-7.975 -1.6734,-25.3 -2.5018,-38.5 -0.8285,-13.2 -1.9638,-30.75 -2.523,-39 -0.5592,-8.25 -2.135,-32.55 -3.5018,-54 -1.3668,-21.45 -2.6364,-41.025 -2.8212,-43.5 -0.3211,-4.2988 -0.061,-14.4255 2.2962,-89.5 0.57,-18.15 1.7043,-55.05 2.5207,-82 2.0098,-66.3464 4.293,-140.3713 5.5055,-178.5 1.279,-40.2222 3.675,-118.1971 5.0547,-164.5 1.6882,-56.6571 2.0047,-60.4357 5.5405,-66.1549 4.0554,-6.5594 10.7441,-10.597 18.4824,-11.1567 10.6887,-0.7732 21.0279,6.4412 23.9324,16.6992 1.189,4.1994 1.4207,9.9788 7.4997,187.1124 0.8023,23.375 1.9108,54.875 2.4634,70 0.989,27.0683 2.648,74.8203 5.5414,159.5 1.7005,49.767 3.1351,90.26 4.4949,126.869 0.8365,22.5213 0.7031,29.3153 -1.0312,52.5 -1.0957,14.647 -2.6519,35.856 -3.4583,47.131 -2.0019,27.9897 -4.3302,59.8617 -5.5154,75.5 -0.5418,7.15 -1.6612,22.45 -2.4875,34 -5.0113,70.0529 -6.5317,88.8603 -7.4634,92.3202 -3.7349,13.8702 -19.4091,20.9986 -32.5484,14.8024 z m 210.5,0.2989 c -9.0388,-4.0868 -15.2684,-12.7895 -16.4201,-22.9389 -0.3422,-3.0154 -1.289,-18.0826 -2.1038,-33.4826 -0.8149,-15.4 -1.931,-35.65 -2.4802,-45 -1.0641,-18.1152 -3.0937,-54.2676 -5.4737,-97.5 -1.7724,-32.197 -3.3987,-61.1231 -4.4063,-78.3716 -0.4135,-7.0793 -0.402,-25.9793 0.026,-42 0.4277,-16.0206 1.2527,-46.9034 1.8334,-68.6284 0.9583,-35.8534 2.1387,-81.4817 5.0059,-193.5 1.3326,-52.063 2.8269,-108.2182 4.0313,-151.5 0.5434,-19.525 1.4401,-55.3 1.9927,-79.5 0.5526,-24.2 1.2699,-46.011 1.594,-48.469 1.2244,-9.285 7.7743,-18.052 16.4011,-21.9525 5.9469,-2.6888 16.8593,-2.7798 22.5654,-0.1881 6.1584,2.7971 11.0666,7.6388 13.974,13.7844 2.5552,5.4014 2.642,6.248 3.5034,34.1819 2.5209,81.7467 3.0728,100.432 7.4473,252.1433 0.8168,28.325 1.9394,66.35 2.4947,84.5 0.5554,18.15 1.6838,56.175 2.5076,84.5 0.8238,28.325 1.9917,67.25 2.5954,86.5 1.0666,34.0186 0.9301,42.7258 -1.1294,72 -0.9058,12.8759 -2.7986,42.7822 -6.4557,102 -3.0197,48.8967 -4.5677,73.5635 -5.5227,88 -0.5457,8.25 -1.4456,22.1283 -1.9997,30.8406 -0.8641,13.587 -1.3669,16.6006 -3.5343,21.1819 -2.8209,5.963 -7.7781,10.8153 -13.8806,13.5871 -5.7061,2.5917 -16.6185,2.5007 -22.5654,-0.1881 z m 326.3827,1.1923 c -8.6118,-2.2292 -17.0096,-8.3604 -21.681,-15.8291 -5.0218,-8.0292 -4.7404,-5.6355 -8.2039,-69.7847 -1.9796,-36.6661 -5.1754,-94.3662 -6.4801,-117 -0.5707,-9.9 -1.4985,-26.775 -2.0618,-37.5 -0.5633,-10.725 -1.4402,-26.5255 -1.9487,-35.1122 -0.5699,-9.6224 -0.5616,-32.8337 0.022,-60.5 0.5204,-24.6883 1.6251,-79.5378 2.455,-121.8878 2.5488,-130.0701 4.4559,-225.7369 5.5217,-277 1.5789,-75.9427 3.9198,-195.3428 4.5777,-233.5 0.6643,-38.5215 1.2914,-43.1821 6.9639,-51.7522 11.8296,-17.8725 37.4273,-20.3261 52.7019,-5.0515 5.4559,5.4559 8.6053,11.877 9.8073,19.9957 0.5137,3.4694 1.6232,41.633 2.4656,84.808 0.8424,43.175 1.963,97.4 2.4902,120.5 0.5271,23.1 1.6412,73.95 2.4756,113 0.8345,39.05 1.9682,91.025 2.5193,115.5 0.5512,24.475 1.6708,75.55 2.488,113.5 0.8173,37.95 1.9764,90.9479 2.5759,117.7731 0.7919,35.4397 0.7885,53.6192 -0.012,66.5 -0.6063,9.7498 -1.7754,29.2019 -2.5979,43.2269 -0.8225,14.025 -1.9365,32.475 -2.4755,41 -0.5391,8.525 -1.664,27.2 -2.4998,41.5 -0.8359,14.3 -1.9617,32.975 -2.5018,41.5 -0.5402,8.525 -1.6639,27.875 -2.4972,43 -0.8334,15.125 -1.919,30.2492 -2.4125,33.6093 -2.4326,16.5627 -15.6421,28.9513 -31.8978,29.9155 -3.6717,0.2177 -8.0786,0.033 -9.7931,-0.411 z m -846.4509,-3.4315 c -7.3977,-3.912 -8.7015,-7.7477 -10.435,-30.7008 -0.8093,-10.7148 -1.9099,-24.8815 -2.4458,-31.4815 -0.5359,-6.6 -2.1035,-26.85 -3.4836,-45 -1.3801,-18.15 -2.744,-35.7 -3.0307,-39 -0.9035,-10.397 -5.4571,-68.6604 -8.05,-103 -1.3705,-18.15 -2.6733,-34.1173 -2.8951,-35.4829 -0.2218,-1.3656 0,-6.7656 0.4837,-12 0.4879,-5.2344 2.2643,-26.6171 3.9477,-47.5171 1.6833,-20.9 3.7327,-45.875 4.5541,-55.5 0.8214,-9.625 2.1585,-25.825 2.9712,-36 2.4507,-30.6815 4.3301,-53.8068 5.4451,-67 0.5811,-6.875 1.6981,-20.6179 2.4823,-30.5398 0.7842,-9.9219 1.7395,-18.9219 2.1229,-20 1.2574,-3.5353 5.4456,-8.4317 8.6134,-10.0698 4.3342,-2.2414 13.411,-1.5071 17.5176,1.417 5.4922,3.9108 7.0137,8.8357 8.7102,28.1926 0.8435,9.625 1.995,22.225 2.5589,28 1.4648,15.0021 3.7794,39.844 5.4971,59 0.8138,9.075 1.9373,21.225 2.4968,27 0.5595,5.775 1.681,17.7 2.4921,26.5 0.8112,8.8 2.6172,28.15 4.0134,43 6.3777,67.8317 6.2417,58.0294 1.5259,110 -0.549,6.05 -2.1402,24.05 -3.536,40 -1.3959,15.95 -3.4115,38.675 -4.4792,50.5 -1.0678,11.825 -2.6309,29.375 -3.4736,39 -0.8427,9.625 -2.4558,27.85 -3.5847,40.5 -1.1289,12.65 -2.7007,30.5874 -3.4928,39.8608 -1.7348,20.3079 -2.463,23.2872 -6.6884,27.363 -6.0135,5.8005 -12.6044,6.7835 -19.8375,2.9585 z m -97.9318,-2.8783 c -3.9935,-1.1029 -7.5486,-4.0709 -9.6008,-8.0151 -1.2743,-2.4493 -3.2344,-22.5943 -8.3472,-85.7885 -0.5562,-6.875 -2.1307,-25.775 -3.4989,-42 -1.3682,-16.225 -3.1625,-37.825 -3.9874,-48 -2.9593,-36.502 -5.524,-66.715 -6.706,-79 -1.5017,-15.6073 -1.4961,-29.8837 0.018,-46 0.6459,-6.875 2.2892,-26.45 3.6517,-43.5 3.432,-42.9465 5.2755,-65.9349 6.9968,-87.25 0.8106,-10.0375 2.1504,-26.6875 2.9774,-37 0.827,-10.3125 1.962,-24.375 2.5223,-31.25 0.5604,-6.875 1.9059,-23.4294 2.9902,-36.7875 1.2939,-15.9409 2.4766,-25.2647 3.4417,-27.1309 5.4118,-10.4653 19.5408,-11.2921 25.594,-1.4977 2.3376,3.7822 2.576,5.7897 8.421,70.9161 2.9095,32.418 4.4415,49.1916 7.992,87.5 1.9626,21.175 4.2557,46.15 5.0959,55.5 0.8402,9.35 2.1847,24.2 2.9878,33 3.9314,43.0777 3.8431,40.5821 2.0816,58.8236 -1.5433,15.982 -6.8192,71.9009 -10.1591,107.6764 -0.7959,8.525 -1.9078,20.225 -2.471,26 -0.5632,5.775 -1.6726,17.475 -2.4655,26 -0.7929,8.525 -2.6081,27.65 -4.0339,42.5 -1.4258,14.85 -3.1689,33.3238 -3.8735,41.0528 -1.4031,15.392 -2.7755,19.1724 -8.1271,22.3878 -4.1193,2.475 -7.3744,3.0023 -11.5,1.863 z m -102.5815,-10.7725 c -3.7396,-1.5128 -7.1835,-6.6705 -7.8387,-11.7395 -0.5201,-4.0238 -4.1179,-43.2629 -17.1724,-187.2916 -0.8226,-9.075 -2.1513,-23.7 -2.9526,-32.5 -4.2593,-46.7715 -4.3178,-42.8623 1.5788,-105.5 0.5436,-5.775 2.1104,-23.4373 3.4817,-39.2496 1.3713,-15.8123 3.6097,-41.4623 4.9741,-57 1.3644,-15.5377 3.3914,-38.8254 4.5045,-51.7504 1.113,-12.925 2.4738,-28.45 3.0239,-34.5 0.5501,-6.05 1.2399,-13.925 1.5328,-17.5 0.9949,-12.1402 1.6795,-15.1199 4.1473,-18.0528 5.1433,-6.1124 14.9618,-6.0427 19.3625,0.1376 2.4156,3.3924 3.0828,7.5289 5.874,36.4152 1.1161,11.55 2.4769,25.05 3.0241,30 0.5471,4.95 1.6726,15.975 2.501,24.5 4.9254,50.689 12.6526,128.8157 13.5006,136.5 0.5463,4.95 1.6829,16.2 2.5259,25 0.8429,8.8 1.7979,18.7379 2.1221,22.0842 0.5395,5.5691 -0.056,14.1644 -2.5905,37.4158 -1.9676,18.0478 -7.9005,75.3839 -13.9692,135 -1.0918,10.725 -2.4584,24 -3.0369,29.5 -0.5785,5.5 -2.1856,21.025 -3.5712,34.5 -3.3094,32.1834 -3.9353,36.2997 -5.9989,39.4492 -3.1293,4.7759 -9.6371,6.7608 -15.0229,4.5819 z m -100.267,-40.6863 c -1.8416,-0.9295 -3.967,-3.0748 -4.7231,-4.7674 -1.1358,-2.5427 -7.8264,-59.7795 -19.93934,-170.5774 -0.7516,-6.875 -2.5334,-22.8133 -3.9595,-35.4184 -2.2812,-20.1631 -2.4638,-24.1305 -1.5196,-33 0.5903,-5.5449 3.0571,-28.0816 5.4817,-50.0816 3.81644,-34.6279 10.26084,-93.5716 14.97854,-137 0.7767,-7.15 1.9675,-18.0731 2.6463,-24.2736 1.4556,-13.2977 3.0212,-16.5882 8.7025,-18.2903 3.1326,-0.9386 4.4727,-0.8995 6.7079,0.1955 6.0086,2.9436 6.0759,3.2287 11.998,50.8684 3.0426,24.475 9.5753,76.9422 14.5173,116.5939 l 8.9853,72.0938 -1.4892,11.4062 c -2.1106,16.1657 -5.8399,45.3122 -10.5121,82.1561 -16.7561,132.1366 -16.9744,133.7847 -17.9591,135.6247 -2.7851,5.2041 -8.6981,7.1035 -13.9156,4.4701 z m -95.40154,-85.4249 c -3.322,-1.9349 -4.6606,-6.6977 -7.1737,-25.5251 -5.0019,-37.4721 -9.6976,-72.3266 -12.7846,-94.8948 -3.628,-26.5231 -3.7058,-28.8456 -1.5087,-45 0.8976,-6.6 2.307,-17.175 3.1319,-23.5 0.8249,-6.325 1.9541,-14.875 2.5094,-19 4.4546,-33.0919 11.0727,-83.731 11.0741,-84.7342 9e-4,-0.6788 1.3056,-2.6936 2.8993,-4.4773 2.3979,-2.6838 3.6228,-3.243 7.1023,-3.243 6.2443,0 9.3625,3.8942 10.858,13.5602 0.6291,4.0669 2.9518,18.8693 5.1615,32.8943 2.2097,14.025 5.1376,32.7 6.5065,41.5 1.3688,8.8 3.6263,23.2 5.0166,32 5.3117,33.6206 5.248,30.1595 1.0406,56.5 -2.0645,12.925 -4.3542,27.325 -5.0882,32 -0.7339,4.675 -3.6584,23.125 -6.4988,41 -2.8403,17.875 -5.6327,35.5501 -6.2052,39.278 -1.3381,8.713 -4.6491,12.7374 -10.4422,12.6916 -2.1168,-0.017 -4.6363,-0.4891 -5.5988,-1.0497 z"
       id="path1" />
  </g>
</svg>
