<?xml version="1.0" encoding="UTF-8" standalone="no"?>
<!-- Created with Inkscape (http://www.inkscape.org/) -->

<svg
   version="1.1"
   viewBox="0 0 1929.8431 1278.3527"
   xmlns="http://www.w3.org/2000/svg"
   xmlns:svg="http://www.w3.org/2000/svg">
  <defs
     id="defs1" />
  <g
     id="g1"
     transform="translate(14.962819,-13.989638)">
    <path
       d="m 1459.7442,1291.698 c -15.3427,-2.0525 -20.275,-4.2872 -56.2931,-25.5048 -138.0707,-81.3349 -303.6606,-136.8038 -478.58861,-160.3164 -200.8463,-26.9965 -429.33541,-13.8791 -662.6666,38.0431 -16.49999,3.6717 -34.79999,6.9965 -40.66666,7.3884 -37.89606,2.5318 -74.06696,-23.5047 -85.49831,-61.5433 -1.72147,-5.7283 -2.39821,-12.3541 -2.38322,-23.3334 0.018,-13.1754 0.52759,-16.7928 3.6212,-25.7045 8.6076,-24.7958 26.95751,-43.87954 50.75299,-52.78254 15.03635,-5.6259 105.94094,-24.163 170.84067,-34.8376 128.57933,-21.1486 232.90253,-29.95001 354.66663,-29.92221 78.5296,0.018 129.577,2.633 196,10.04071 219.15061,24.4405 413.30851,88.09884 592.66671,194.31684 30.6588,18.1565 44.5989,34.3229 51.3546,59.556 2.7701,10.3468 2.7901,30.8655 0.04,41.3333 -7.6403,29.0841 -32.3239,54.1934 -60.0615,61.0975 -10.8804,2.7082 -23.6339,3.5269 -33.785,2.1689 z m 138.4517,-360.62124 c -15.5747,-3.1823 -23.4189,-6.72971 -48.8556,-22.09401 -60.8151,-36.7334 -138.66,-73.8161 -217.1444,-103.4402 C 1162.6,741.52804 974.14619,704.05116 773.52919,694.44319 c -36.3874,-1.74266 -128.4367,-1.72411 -164.0614,0.0331 -138.27293,6.82028 -261.56875,26.41097 -378.21368,60.09501 -26.0645,7.52675 -29.72158,8.25242 -44.61885,8.8536 -20.75262,0.83748 -32.34351,-1.53737 -50.43936,-10.33446 -27.39293,-13.31677 -46.125688,-35.21485 -55.312568,-64.65888 -6.1251,-19.63097 -4.95947,-47.24552 2.85392,-67.61141 9.59178,-25.00133 28.783488,-45.95386 52.435178,-57.24605 25.42789,-12.14022 130.71528,-38.56973 211.35679,-53.05533 52.08422,-9.35587 131.01221,-19.63496 179.33333,-23.35527 106.77414,-8.22068 198.33454,-9.05217 298.00004,-2.70624 288.40781,18.3636 561.41611,93.44618 786.66661,216.3486 31.0618,16.9481 62.742,35.87634 73.1849,43.72647 16.0097,12.03468 29.55,32.10775 36.3577,53.89922 2.6731,8.5566 3.1241,12.7907 3.1241,29.3334 0,16.5384 -0.4514,20.7789 -3.1225,29.3333 -11.998,38.4244 -41.982,65.9236 -80.5719,73.89451 -12.1188,2.5032 -30.2894,2.5393 -42.3056,0.084 z m 171.3333,-416.08807 c -1.4666,-0.34244 -6.8349,-1.57631 -11.9293,-2.74194 -13.0583,-2.98776 -21.8554,-7.05764 -50.7373,-23.47315 -166.8322,-94.82166 -378.8381,-161.71041 -622,-196.24365 -71.8712,-10.20697 -134.81841,-16.28647 -230.00001,-22.21367 -36.163,-2.25196 -184.1398,-3.11103 -227.5079,-1.32078 -175.71897,7.25372 -327.28194,29.53973 -462.29433,67.97633 -34.2346,9.74623 -47.30917,11.6428 -65.602208,9.51612 -16.46272,-1.91389 -28.23699,-5.26798 -42.50008,-12.10683 -15.18403,-7.28042 -25.72347,-15.04673 -37.53358,-27.65778 -27.1786897,-29.02189 -39.27793,-68.89891 -32.5722,-107.3524 4.4747503,-25.66015 15.6619603,-47.77995 33.54951,-66.33545 22.97265,-23.83048 35.03051,-29.51649 99.794098,-47.058956 158.60814,-42.96206 348.42457,-67.857169 544.66669,-71.434999 120.0183,-2.18814 230.7069,2.10871 342.00001,13.276189 321.5553,32.26583 608.4495,116.000226 828,241.664266 25.162,14.40198 33.0256,19.88317 43.3793,30.23687 15.9903,15.99038 27.9819,37.27327 33.549,59.54332 3.8296,15.31975 4.1563,44.27612 0.6578,58.30724 -11.4803,46.04343 -45.0457,81.06923 -90.3425,94.27323 -7.7322,2.25393 -14.3059,2.98552 -29.9103,3.32875 -11,0.24194 -21.2,0.15972 -22.6667,-0.18271 z"
       id="path1" />
  </g>
</svg>
