<?xml version="1.0" encoding="UTF-8" standalone="no"?>
<!-- Created with Inkscape (http://www.inkscape.org/) -->

<svg
   version="1.1"
   viewBox="0 0 967.03998 668.47998"
   xmlns="http://www.w3.org/2000/svg"
   xmlns:svg="http://www.w3.org/2000/svg">
  <defs
     id="defs1" />
  <g
     id="g1">
    <path
       d="m 509.75051,670.45403 c -2.816,-0.1073 -5.264,-0.28592 -5.44,-0.39693 -0.176,-0.11101 -7.376,-0.29516 -16,-0.40922 -8.624,-0.11406 -16.832,-0.27087 -18.24,-0.34846 -1.408,-0.0776 -8.968,-0.21957 -16.8,-0.3155 -7.832,-0.0959 -16.112,-0.24171 -18.4,-0.32396 -2.288,-0.0823 -9.776,-0.22546 -16.64,-0.31823 -6.864,-0.0928 -15.072,-0.23761 -18.24,-0.32185 -3.168,-0.0843 -10.872,-0.22811 -17.12,-0.31969 -6.248,-0.0916 -14.384,-0.23577 -18.08,-0.32041 -3.696,-0.0847 -11.256,-0.22858 -16.8,-0.31985 -9.46869,-0.15588 -14.11343,-0.24091 -34.72,-0.63557 -14.05903,-0.26926 -30.44977,-0.4743 -51.68,-0.6465 -71.15392,-0.57714 -106.76996,-3.2187 -144.77826,-10.73792 C 89.343572,649.6058 69.401892,639.4577 52.927572,622.52977 44.091882,613.4508 37.272512,603.59591 31.039692,590.89894 20.884712,570.2121 14.397992,546.19505 9.7783323,512.17895 c -3.43803,-25.31534 -7.56268,-74.22693 -9.13450002,-108.32 -0.68529,-14.86421 -0.77894,-17.269 -0.97208,-24.96 -0.095,-3.784 -0.25067,-8.896 -0.34588,-11.36 -0.30306,-7.84322 -0.18445,-53.62957 0.17077,-65.92 1.2543,-43.39839 3.89912002,-80.92648 8.52475002,-120.96 3.1097897,-26.91448 7.9858697,-60.30717 10.3967797,-71.19999 5.44791,-24.614461 15.74846,-44.925571 30.75396,-60.642131 17.8465,-18.69219 42.57321,-30.41949 72.108518,-34.19938 17.21742,-2.20347 118.81468,-7.5871695 175.82986,-9.3173415 3.08,-0.0935 7.112,-0.23721 8.96,-0.31943 1.848,-0.0822 7.104,-0.22816 11.68,-0.32431 4.576,-0.0961 9.328,-0.23894 10.56,-0.31732 1.232,-0.0784 7.424,-0.2271 13.76,-0.33048 6.336,-0.10339 11.952,-0.24047 12.48,-0.30464 0.528,-0.0642 8.304,-0.21794 17.28,-0.34173 8.976,-0.1238 16.68,-0.26709 17.12,-0.31844 2.10734,-0.24594 61.87097,-0.6248 98.56,-0.6248 37.67794,0 100.90443,0.38924 103.20003,0.63533 0.528,0.0566 9.24,0.19794 19.36,0.31409 10.12,0.11615 18.976,0.26439 19.68,0.32943 0.704,0.065 7.544,0.20447 15.2,0.30984 7.656,0.10537 14.928,0.2538 16.16,0.32985 1.232,0.0761 7.352,0.21954 13.6,0.31886 6.248,0.0993 12.512,0.24437 13.92,0.32232 1.408,0.078 6.808,0.22128 12,0.31849 5.192,0.0972 10.88,0.24237 12.64,0.32257 1.76,0.0802 6.8,0.22405 11.2,0.31966 4.4,0.0956 9.584,0.24032 11.52,0.321562 1.936,0.0812 6.616,0.22465 10.4,0.31867 3.784,0.094 8.536,0.23744 10.56,0.31869 2.024,0.0813 6.632,0.22954 10.24,0.32951 15.323,0.42458 25.1439,1.09381 37.7599,2.57309 12.8002,1.5008695 34.1851,4.9196195 44.1589,7.0595995 31.3238,6.72077 55.6168,21.88685 72.8703,45.49279 5.9523,8.14375 13.1533,21.39482 17.1646,31.58565 10.262,26.071301 16.0059,55.887721 20.0348,103.999991 4.1699,49.79674 5.8693,80.61444 6.3956,115.98343 0.843,56.645 -2.2106,113.35736 -9.1157,169.29657 -7.1249,57.72075 -13.9189,87.32483 -25.6163,111.6205 -6.1901,12.85687 -12.5648,22.24614 -21.0489,31.00278 -18.4743,19.06776 -42.3015,29.19828 -75.0833,31.92281 -12.846,1.06765 -61.9872,4.44036 -88.6399,6.08362 -50.777,3.13064 -103.6943,5.49822 -136.48,6.10626 -5.632,0.10445 -10.672,0.2581 -11.2,0.34143 -1.4806,0.23368 -82.84656,0.37842 -88.64003,0.15768 z M 448.40874,442.77309 c 99.44375,-57.12471 135.9135,-78.06736 161.4189,-92.69443 15.1022,-8.66095 24.238,-14.08062 24.2395,-14.37971 0,-0.30086 -8.6259,-5.42967 -23.1171,-13.74263 -33.8939,-19.4434 -105.3426,-60.48805 -150.15953,-86.26113 -51.45588,-29.59097 -72.79456,-41.75624 -73.2432,-41.75624 -0.47495,0 -0.5168,11.47787 -0.5168,141.76 0,128.10064 0.048,141.76 0.49823,141.76 0.27402,0 27.67002,-15.60864 60.88,-34.68586 z"
       id="path1" />
  </g>
</svg>
